<svg width="1092" height="632" viewBox="0 0 1092 632" fill="none" xmlns="http://www.w3.org/2000/svg"><mask id="a" fill="#fff"><rect x="175.5" y="13.184" width="733.917" height="528.42" rx="1.969"/></mask><rect x="175.5" y="13.184" width="733.917" height="528.42" rx="1.969" fill="#fff" stroke="#DEDEE2" stroke-width="7.878" mask="url(#a)"/><path d="M180.672 51.2a5.407 5.407 0 0 1 5.407-5.406h712.76a5.407 5.407 0 0 1 5.407 5.407v60.17H180.672v-60.17z" fill="#2DAAF4" fill-opacity=".2"/><rect x="411.305" y="68.928" width="262.309" height="20.269" rx="1.11" fill="#fff"/><g opacity=".5"><rect x="641.421" y="68.928" width="32.192" height="20.269" rx="1.11" fill="#FFBD69"/><path clip-rule="evenodd" d="M656.325 74.294a3.577 3.577 0 1 0 0 7.154 3.577 3.577 0 0 0 0-7.154z" stroke="#2F302F" stroke-width="1.443" stroke-linecap="square"/><path d="M659.307 80.852l2.384 2.384" stroke="#2F302F" stroke-width="1.443" stroke-linecap="round" stroke-linejoin="round"/></g><rect x="226.831" y="137.949" width="263.913" height="14.823" rx="1.853" fill="#DDF1FF"/><rect x="226.831" y="163.949" width="630.549" height="7" rx="1.853" fill="#E7EBED"/><rect x="226.831" y="178.949" width="630.549" height="7" rx="1.853" fill="#E7EBED"/><rect x="226.831" y="193.949" width="601.31" height="7" rx="1.853" fill="#E7EBED"/><g opacity=".55"><path d="M800.689 449.15H426.168l-126.485-11.392s22.634-56.394 28.806-57.24c6.171-.847 460.341 0 460.341 0l11.859 68.632z" fill="#698DD7"/><path d="M245.643 443.599c9.32 3.813 65.661 4.66 65.661 4.66s-1.27-69.047 56.765-61.002c58.034 8.05 47.888 65.359 47.888 65.359l279.011 4.979s-4.535-72.792 57.067-65.133c51.177 6.361 38.032 64.859 38.032 64.859 51.021 2.636 56.293-14.685 56.293-14.685v-7.156h-3.2v-18.828h3.2v-14.024l-10.73-24.569-.004-.004c-18.079-31.063-159.846-39.536-159.846-39.536-21.53-12.38-39.383-21.578-53.346-28.258-22.276-10.658-47.671-21.05-72.248-23.48-66.544-6.579-121.261.874-134.676 3.051-15.673 2.54-94.463 36.852-100.392 39.818-5.93 2.967-54.302 6.986-60.514 7.74-6.212.75-6.026 6.965-6.026 6.965l-.855 5.515-3.249 20.993-.794 5.124c-4.519 2.257-4.523 8.731-4.523 8.731s-2.83 55.068 6.486 58.881z" fill="#99B6EF"/><path d="M821.216 437.758h9.594a8.764 8.764 0 0 1 7.647 4.486l.33.589a.891.891 0 0 1-.778 1.326h-11.544a2.857 2.857 0 0 1-2.097-.919l-3.765-4.08a.836.836 0 0 1 .613-1.402z" fill="#969488"/><path d="M356.657 334.451l143.42 3.406a5.004 5.004 0 0 0 5.127-5.006v-33.042c0-2.6-2.128-4.696-4.728-4.66-61.159.85-82.116 2.556-94.685 6.889-11.085 3.825-37.012 19.55-50.411 27.532-2.262 1.35-1.355 4.817 1.277 4.881zm161.023-39.516c-2.326.025-4.603.053-6.832.081v43.095l138.36 3.286c1.802.04 2.548-2.294 1.052-3.302-16.164-10.895-70.313-43.865-132.58-43.16z" fill="#E3E3E3"/><path d="M357.146 334.463l.077.004v-5.99c-.488.294-.968.577-1.427.851-2.383 1.415-1.423 5.067 1.35 5.135z" fill="#AFCDFB"/><path d="M505.201 339.852l16.946-1.342-1.128-46.091h-15.818v47.433zm-107.322.001h7.909v-41.391l-7.909 4.745v36.646z" fill="#99B6EF"/><path d="M631.944 326.913l-4.217 13.975 23.078.549c1.346.032 1.927-1.693.834-2.479-5.212-3.753-14.866-10.429-19.695-12.045z" fill="#2C3A64"/><path d="M651.809 342.586c.943 0 1.769-.597 2.064-1.496a2.15 2.15 0 0 0-.823-2.455l-.479-.33c-.5-.347-1.061-.73-1.673-1.145a178.55 178.55 0 0 0-1.629-1.084l-.874-.573c-.662-.435-1.363-.887-2.109-1.358-.528-.339-1.08-.685-1.648-1.044l-.093-.057c-.081-.048-.161-.1-.246-.153-.48-.298-.984-.613-1.504-.931l-.112-.069c-.174-.104-.347-.213-.52-.318l-.803-.488c-.379-.23-.766-.463-1.161-.697a264.4 264.4 0 0 0-7.122-4.128l-.581-.326a308.694 308.694 0 0 0-5.018-2.729l-.549-.291a61.75 61.75 0 0 1-.761-.403 293.92 293.92 0 0 0-9.695-4.849l-1.012-.48a273.212 273.212 0 0 0-3.1-1.439c-.346-.161-.701-.318-1.06-.479-.697-.319-1.411-.637-2.132-.956l-1.081-.475a214.752 214.752 0 0 0-3.507-1.508 262.217 262.217 0 0 0-15.704-6.043l-1-.346-1.133-.387-1.427-.48c-.387-.129-.77-.254-1.157-.379l-.044-.016a61.238 61.238 0 0 0-1.213-.391c-.734-.234-1.472-.472-2.217-.701-.504-.158-1.016-.315-1.532-.472-.786-.238-1.568-.472-2.358-.705l-1.314-.379c-.827-.234-1.657-.468-2.492-.698a206.94 206.94 0 0 0-4.998-1.31l-.101-.024c-.149-.036-.294-.077-.443-.109-.71-.177-1.435-.354-2.161-.524-.427-.105-.866-.205-1.306-.306l-.33-.077a692.014 692.014 0 0 0-2.29-.512c-.439-.096-.879-.189-1.318-.282-.444-.093-.887-.185-1.33-.274-.44-.093-.883-.181-1.335-.27l-.072-.016c-.419-.085-.843-.165-1.266-.246l-1.262-.242c-.475-.089-.951-.173-1.427-.258a52.822 52.822 0 0 0-.919-.161l-.431-.077c-.903-.153-1.802-.306-2.705-.447-.451-.073-.907-.141-1.362-.214l-.069-.012a209.684 209.684 0 0 0-6.865-.915l-.096-.012c-.412-.048-.823-.097-1.238-.137a50.204 50.204 0 0 0-.891-.093 29.574 29.574 0 0 0-.935-.097 62.25 62.25 0 0 0-1.044-.1c-.464-.045-.931-.089-1.407-.129a63.984 63.984 0 0 0-1.354-.109c-.359-.028-.706-.057-1.052-.081l-2.008-.137-1.189-.072-.173-.008c-.436-.025-.879-.049-1.322-.069l-1.061-.048h-.032c-.318-.012-.637-.029-.955-.037l-.786-.028c-.311-.012-.625-.02-.939-.028a4.435 4.435 0 0 0-3.266 1.274 4.463 4.463 0 0 0-1.362 3.225v35.714c0 2.967 2.415 5.442 5.381 5.511l126.481 3.003c.016-.008.037-.008.057-.008zm-20.889-14.951l.782.435a236.415 236.415 0 0 1 3.821 2.173 223.96 223.96 0 0 1 3.512 2.068c.395.233.778.467 1.152.693.27.161.532.323.799.488l.507.31.121.073c.516.318 1.016.629 1.504.931l.322.197 1.633 1.036c.734.468 1.427.915 2.08 1.343l.871.572c.572.379 1.108.734 1.608 1.072.605.407 1.157.786 1.653 1.129l.23.157-23.763-.564-102.428-2.431a3.273 3.273 0 0 1-3.177-3.253v-35.715c0-.608.242-1.177.678-1.604a2.24 2.24 0 0 1 1.628-.637 69 69 0 0 1 .923.028l.786.029.931.036h.037l1.048.048c.435.02.87.041 1.306.069l.177.008c.387.02.774.044 1.165.068l1.991.137c.339.025.678.053 1.02.081.468.036.911.073 1.355.113a138.122 138.122 0 0 1 2.422.226c.319.028.617.06.915.092.315.033.601.061.887.093.419.044.818.089 1.226.137l.096.012c1.451.17 2.939.359 4.414.561.794.108 1.585.225 2.371.342l.064.008c.451.069.903.141 1.35.21.899.141 1.786.29 2.677.443l.431.077c.303.052.605.105.903.161.476.085.948.169 1.415.258.415.077.831.157 1.25.238.419.081.838.161 1.253.246l.073.016c.439.085.875.173 1.31.266.443.093.883.181 1.322.274.436.093.871.186 1.306.282.436.097.867.19 1.302.29l.968.218.334.077c.432.096.859.197 1.286.302a141.224 141.224 0 0 1 2.568.625l.105.028a226.337 226.337 0 0 1 7.421 1.987l1.306.375c.778.23 1.556.464 2.334.698.504.153 1.012.306 1.511.463.742.23 1.472.464 2.201.698.399.125.795.254 1.194.387l.048.016 1.141.375 1.419.475c.371.125.745.25 1.116.379l.996.347a260.081 260.081 0 0 1 13.584 5.164c.665.274 1.331.552 1.992.826 1.269.536 2.406 1.024 3.474 1.495l1.081.476c.713.314 1.419.629 2.112.947.355.162.701.315 1.044.476 1.044.48 2.068.951 3.08 1.431l1.011.48a291.489 291.489 0 0 1 10.372 5.208l.54.286c1.488.79 3.004 1.608 4.503 2.439zm-235.403 8.916c.842 0 1.649-.33 2.269-.939.694-.677 1.093-1.645 1.093-2.648V308.85c0-1.37-.202-3.124-1.314-3.817-1.008-.629-2.697-.17-3.757.35a91.373 91.373 0 0 0-2.447 1.234 3.64 3.64 0 0 0-.177.097l-.48.262c-6.01 3.281-14.564 8.449-25.432 15.358-.463.294-.923.584-1.378.879-1.097.697-2.161 1.382-3.189 2.043l-3.813 2.459c-.661.432-1.298.843-1.903 1.238-.084.052-.177.113-.27.173l-.084.052c-1.27.827-1.831 2.403-1.403 3.923.407 1.443 1.588 2.398 3.007 2.434l.415.012 38.778 1.008c.029-.004.057-.004.085-.004zm-.214-29.519c.327 0 .589.121.746.222.52.322.83.923.83 1.596v24.114c0 .467-.177.911-.487 1.213a1.272 1.272 0 0 1-.907.371l-39.194-1.016c-.798-.02-1.068-.754-1.132-.98-.146-.52-.085-1.273.568-1.701l.085-.052c.084-.057.173-.113.262-.169.616-.403 1.249-.815 1.91-1.242l3.806-2.455a579.186 579.186 0 0 1 3.184-2.04l1.375-.874c10.831-6.885 19.348-12.033 25.318-15.294l.488-.266c.049-.028.097-.052.145-.081a82.833 82.833 0 0 1 2.395-1.209c.217-.101.423-.137.608-.137z" fill="#698DD7"/><path d="M631.944 326.913l-4.217 13.975 23.078.549c1.346.032 1.927-1.693.834-2.479-5.212-3.753-14.866-10.429-19.695-12.045zm-131.738 12.073c1.608 0 3.12-.616 4.277-1.741a6.09 6.09 0 0 0 1.85-4.39v-33.046c0-1.56-.613-3.023-1.725-4.12a5.802 5.802 0 0 0-4.148-1.669c-63.126.879-82.672 2.31-95.068 6.966l-.733.274v35.461l95.394 2.261c.048.004.1.004.153.004zm.334-42.708a3.49 3.49 0 0 1 2.48 1.02 3.506 3.506 0 0 1 1.052 2.511v33.042a3.851 3.851 0 0 1-1.169 2.773 3.859 3.859 0 0 1-2.802 1.101l-93.189-2.209v-31.684c12.061-4.281 32.752-5.708 93.572-6.55.024-.004.04-.004.056-.004z" fill="#698DD7"/><path d="M244.475 370.863h27.003c4.019 0 7.813-1.842 10.296-4.999l10.21-12.975c.964-1.222.093-3.02-1.463-3.02h-42.797l-3.249 20.994z" fill="#fff"/><path d="M512.015 294.578l1.708 144.695-1.129.013-1.707-144.694 1.128-.014z" fill="#698DD7"/><path d="M416.383 437.193l279.144 5.5-.022 1.129-279.144-5.5.022-1.129zm112.234-69.103c0 1.532 6.828 2.769 15.249 2.769s15.249-1.241 15.249-2.769c0-1.532-6.828-2.769-15.249-2.769-8.425 0-15.249 1.241-15.249 2.769zm-142.033 0c0 1.532 6.829 2.769 15.25 2.769 8.42 0 15.249-1.241 15.249-2.769 0-1.532-6.829-2.769-15.249-2.769-8.421 0-15.25 1.241-15.25 2.769z" fill="#698DD7"/><path d="M427.252 437.786l1.129-.06c-.778-14.387-5.043-26.508-12.674-36.034-6.103-7.622-14.358-13.596-24.528-17.76-15.475-6.333-30.801-6.498-33.962-6.454v-43.027h-1.128v44.192l.588-.024c.17-.008 17.051-.621 34.107 6.369 9.984 4.091 18.079 9.957 24.057 17.422 7.469 9.34 11.645 21.239 12.411 35.376zm234.238 4.801c.44-37.323-1.64-63.146-3.458-78.234-1.975-16.374-4.088-24.029-4.108-24.101l-1.088.306c.084.298 8.364 30.769 7.526 102.021l1.128.008zM500.471 294.585h22.098v1.128h-22.098v-1.128z" fill="#698DD7"/><path d="M799.915 361.715c13.257 1.656 24.194 6.003 29.718 9.682-38.669-25.941-115.342-31.3-150.558-32.449v4.829c4.419 9.383 14.713 9.321 19.334 9.659 28.311 2.07 88.248 6.623 101.506 8.279z" fill="#4F4F4F"/><path d="M775.588 477.245c17.492-17.447 17.492-45.734 0-63.181-17.492-17.446-45.853-17.446-63.345 0-17.492 17.447-17.492 45.734 0 63.181 17.492 17.447 45.853 17.447 63.345 0z" fill="#777464"/><path d="M760.776 404.526c13.018 7.817 24.504 20.707 25.125 36.959.846 22.253-9.144 47.49-46.873 46.475-5.956-.159-12.953-1.616-18.152-3.722 6.737 4.041 16.496 5.976 24.93 5.976 24.735 0 42.923-19.609 42.923-44.281-.006-18.73-11.563-34.764-27.953-41.407z" fill="#646259"/><path d="M771.25 445.65c0 15.05-12.232 27.25-27.32 27.25-15.088 0-27.32-12.2-27.32-27.25 0-15.049 12.232-27.249 27.32-27.249 15.088 0 27.32 12.2 27.32 27.249z" fill="#B7B29E"/><path d="M761.722 445.651c0 9.799-7.967 17.745-17.791 17.745-9.824 0-17.791-7.946-17.791-17.745 0-9.799 7.967-17.745 17.791-17.745 9.824 0 17.791 7.946 17.791 17.745z" fill="#777464"/><path d="M746.505 457.449a2.572 2.572 0 0 1-2.573 2.567 2.572 2.572 0 0 1-2.573-2.567v-23.597a2.572 2.572 0 0 1 2.573-2.566 2.57 2.57 0 0 1 2.573 2.566v23.597z" fill="#B7B29E"/><path d="M755.761 442.831a2.57 2.57 0 0 1 2.572 2.566 2.57 2.57 0 0 1-2.572 2.566h-23.659a2.572 2.572 0 0 1-2.573-2.566 2.572 2.572 0 0 1 2.573-2.566h23.659z" fill="#B7B29E"/><path d="M754.207 452.271a2.558 2.558 0 0 1 0 3.628 2.574 2.574 0 0 1-3.637 0l-16.733-16.689a2.56 2.56 0 0 1 0-3.628 2.575 2.575 0 0 1 3.638 0l16.732 16.689z" fill="#B7B29E"/><path d="M750.39 435.403a2.574 2.574 0 0 1 3.637 0 2.558 2.558 0 0 1 0 3.628l-16.732 16.689a2.575 2.575 0 0 1-3.638 0 2.56 2.56 0 0 1 0-3.628l16.733-16.689z" fill="#B7B29E"/><path d="M754.217 445.65c0 5.67-4.608 10.259-10.286 10.259-5.684 0-10.285-4.595-10.285-10.259 0-5.663 4.607-10.259 10.285-10.259 5.684 0 10.286 4.59 10.286 10.259z" fill="#B7B29E"/><path d="M396.27 474.016c18.383-18.335 18.383-48.062 0-66.397-18.382-18.335-48.186-18.335-66.568 0-18.383 18.335-18.383 48.062-.001 66.397 18.383 18.335 48.187 18.335 66.569 0z" fill="#777464"/><path d="M380.705 397.596c13.681 8.214 25.752 21.761 26.404 38.841.889 23.385-9.609 49.907-49.259 48.841-6.26-.168-13.613-1.699-19.077-3.912 7.08 4.247 17.336 6.28 26.2 6.28 25.994 0 45.108-20.608 45.108-46.535-.007-19.684-12.152-36.534-29.376-43.515z" fill="#646259"/><path d="M391.713 440.814c0 15.815-12.854 28.636-28.71 28.636-15.857 0-28.711-12.821-28.711-28.636 0-15.816 12.854-28.637 28.711-28.637 15.856 0 28.71 12.821 28.71 28.637z" fill="#B7B29E"/><path d="M381.7 440.813c0 10.298-8.372 18.649-18.696 18.649-10.325 0-18.697-8.351-18.697-18.649 0-10.297 8.372-18.648 18.697-18.648 10.324 0 18.696 8.351 18.696 18.648z" fill="#777464"/><path d="M365.706 453.213a2.702 2.702 0 0 1-2.704 2.697 2.702 2.702 0 0 1-2.704-2.697v-24.799a2.702 2.702 0 0 1 2.704-2.696 2.702 2.702 0 0 1 2.704 2.696v24.799z" fill="#B7B29E"/><path d="M375.433 437.85a2.702 2.702 0 0 1 2.704 2.697 2.702 2.702 0 0 1-2.704 2.697H350.57a2.702 2.702 0 0 1-2.704-2.697 2.702 2.702 0 0 1 2.704-2.697h24.863z" fill="#B7B29E"/><path d="M373.798 447.771a2.689 2.689 0 0 1 0 3.813 2.706 2.706 0 0 1-3.823 0l-17.584-17.539a2.689 2.689 0 0 1 0-3.813 2.706 2.706 0 0 1 3.823 0l17.584 17.539z" fill="#B7B29E"/><path d="M369.788 430.044a2.706 2.706 0 0 1 3.823 0 2.69 2.69 0 0 1 0 3.813l-17.585 17.539a2.705 2.705 0 0 1-3.822 0 2.689 2.689 0 0 1 0-3.813l17.584-17.539z" fill="#B7B29E"/><path d="M373.811 440.813c0 5.958-4.842 10.781-10.809 10.781-5.974 0-10.81-4.829-10.81-10.781 0-5.952 4.843-10.781 10.81-10.781 5.973 0 10.809 4.823 10.809 10.781z" fill="#B7B29E"/><path d="M827.246 399.991c-8.404-.974-15.497-6.539-20.348-12.696-5.864-7.446-9.387-16.691-.834-16.5 8.175.185 11.895 5.825 18.983 12.623 7.118 6.841 11.765 17.683 2.199 16.573z" fill="#fff"/><path d="M736.315 257.842c28.129-26.624 44.177-34.15 48.684-34.585 1.623 1.567.677 3.698 0 4.568-18.932 8.483-31.78 22.186-53.417 42.415-17.311 16.183-43.276 54.16-54.095 71.126l-4.057-2.61c9.241-15.878 34.756-54.291 62.885-80.914z" fill="#99B6EF"/><path d="M715.37 354.696l-20.121-39.652-1.26 1.733 18.615 37.732 2.766.187z" fill="#698DD7"/></g><path fill-rule="evenodd" clip-rule="evenodd" d="M187.317 5.843c-6.526 0-11.817 5.29-11.817 11.817v30.248a1.97 1.97 0 0 0 1.969 1.97h729.979a1.97 1.97 0 0 0 1.969-1.97V17.66c0-6.527-5.29-11.817-11.817-11.817H187.317zm15.705 27.522a5.505 5.505 0 1 0 0-11.01 5.505 5.505 0 0 0 0 11.01zm27.523-5.504a5.505 5.505 0 1 1-11.01-.001 5.505 5.505 0 0 1 11.01 0zm16.513 5.504a5.505 5.505 0 1 0 0-11.01 5.505 5.505 0 0 0 0 11.01z" fill="#DEDEE2"/><g filter="url(#b)"><path fill="#E0E0F5" d="M129.646 109.341h72.878v5.83h-72.878z"/><rect x="96.219" y="59.395" width="167.685" height="226.137" rx="15.582" fill="#fff"/><path fill-rule="evenodd" clip-rule="evenodd" d="M110.827 74.004h138.468v138.468H110.827V74.004z" fill="#D6D6FD"/><rect x="170.27" y="155.477" width="61.197" height="22.031" rx="4.831" fill="#fff"/><path d="M170.882 162.209h59.973" stroke="#E0E0F5" stroke-width="1.208" stroke-linecap="square"/><path d="M172.105 162.21l1.224-2.448m-1.224 2.447l1.224 2.448m4.896-2.448l1.224 2.448m4.896-2.448l1.224 2.448m4.896-2.448l1.224 2.448m4.896-2.448l1.224 2.448m4.894-2.448l1.224 2.448m4.896-2.448l1.224 2.448m4.895-2.448l1.224 2.448m4.897-2.448l1.224 2.448m4.896-2.448l1.224 2.448m-56.302 3.672l1.224 2.448m4.896-2.448l1.224 2.448m4.896-2.448l1.224 2.448m4.896-2.448l1.224 2.448m4.896-2.448l1.224 2.448m4.894-2.448l1.224 2.448m4.896-2.448l1.224 2.448m4.895-2.448l1.224 2.448m4.897-2.448l1.224 2.448m4.896-2.448l1.224 2.448m-50.182-8.567l1.224-2.448m4.896 2.448l1.224-2.448m4.896 2.448l1.224-2.448m4.896 2.448l1.224-2.448m4.894 2.448l1.224-2.448m4.896 2.448l1.224-2.448m4.895 2.448l1.224-2.448m4.897 2.448l1.224-2.448m4.896 2.448l1.224-2.448m-56.302 13.463l1.224-2.448m4.896 2.448l1.224-2.448m4.896 2.448l1.224-2.448m4.896 2.448l1.224-2.448m4.896 2.448l1.224-2.448m4.894 2.448l1.224-2.448m4.896 2.448l1.224-2.448m4.895 2.448l1.224-2.448m4.897 2.448l1.224-2.448m4.896 2.448l1.224-2.448" stroke="#E0E0F5" stroke-width="1.208" stroke-linecap="round" stroke-linejoin="round"/><path d="M170.882 170.777h59.973" stroke="#E0E0F5" stroke-width="1.208" stroke-linecap="square"/><rect width="61.197" height="22.031" rx="4.831" transform="matrix(-1 0 0 1 231.466 130.999)" fill="#fff"/><path d="M230.854 137.73h-59.973" stroke="#E0E0F5" stroke-width="1.208" stroke-linecap="square"/><path d="M229.629 137.73l-1.224-2.447m1.224 2.447l-1.224 2.448m-4.895-2.448l-1.224 2.448m-4.895-2.448l-1.224 2.448m-4.896-2.448l-1.224 2.448m-4.896-2.448l-1.224 2.448m-4.896-2.448l-1.224 2.448m-4.896-2.448l-1.224 2.448m-4.896-2.448l-1.224 2.448m-4.895-2.448l-1.224 2.448m-4.895-2.448l-1.224 2.448m56.3 3.672l-1.224 2.448m-4.895-2.448l-1.224 2.448m-4.895-2.448l-1.224 2.448m-4.896-2.448l-1.224 2.448m-4.896-2.448l-1.224 2.448m-4.896-2.448l-1.224 2.448m-4.896-2.448l-1.224 2.448m-4.896-2.448l-1.224 2.448m-4.895-2.448l-1.224 2.448m-4.895-2.448l-1.224 2.448m50.181-8.568l-1.224-2.447m-4.895 2.447l-1.224-2.447m-4.896 2.447l-1.224-2.447m-4.896 2.447l-1.224-2.447m-4.896 2.447l-1.224-2.447m-4.896 2.447l-1.224-2.447m-4.896 2.447l-1.224-2.447m-4.895 2.447l-1.224-2.447m-4.895 2.447l-1.224-2.447m56.3 13.463l-1.224-2.448m-4.895 2.448l-1.224-2.448m-4.895 2.448l-1.224-2.448m-4.896 2.448l-1.224-2.448m-4.896 2.448l-1.224-2.448m-4.896 2.448l-1.224-2.448m-4.896 2.448l-1.224-2.448m-4.896 2.448l-1.224-2.448m-4.895 2.448l-1.224-2.448m-4.895 2.448l-1.224-2.448" stroke="#E0E0F5" stroke-width="1.208" stroke-linecap="round" stroke-linejoin="round"/><path d="M230.854 146.298h-59.973" stroke="#E0E0F5" stroke-width="1.208" stroke-linecap="square"/><rect x="170.271" y="106.52" width="61.197" height="22.031" rx="4.831" fill="#fff"/><path d="M170.882 113.252h59.973" stroke="#E0E0F5" stroke-width="1.208" stroke-linecap="square"/><path d="M172.106 113.252l1.224-2.448m-1.224 2.447l1.224 2.448m4.896-2.448l1.224 2.448m4.895-2.448l1.224 2.448m4.897-2.448l1.224 2.448m4.895-2.448l1.224 2.448m4.895-2.448l1.224 2.448m4.896-2.448l1.224 2.448m4.895-2.448l1.224 2.448m4.896-2.448l1.224 2.448m4.897-2.448l1.224 2.448m-56.302 3.672l1.224 2.448m4.896-2.448l1.224 2.448m4.895-2.448l1.224 2.448m4.897-2.448l1.224 2.448m4.895-2.448l1.224 2.448m4.895-2.448l1.224 2.448m4.896-2.448l1.224 2.448m4.895-2.448l1.224 2.448m4.896-2.448l1.224 2.448m4.897-2.448l1.224 2.448m-50.182-8.567l1.224-2.448m4.895 2.448l1.224-2.448m4.897 2.448l1.224-2.448m4.895 2.448l1.224-2.448m4.895 2.448l1.224-2.448m4.896 2.448l1.224-2.448m4.895 2.448l1.224-2.448m4.896 2.448l1.224-2.448m4.897 2.448l1.224-2.448m-56.302 13.463l1.224-2.448m4.896 2.448l1.224-2.448m4.895 2.448l1.224-2.448m4.897 2.448l1.224-2.448m4.895 2.448l1.224-2.448m4.895 2.448l1.224-2.448m4.896 2.448l1.224-2.448m4.895 2.448l1.224-2.448m4.896 2.448l1.224-2.448m4.897 2.448l1.224-2.448" stroke="#E0E0F5" stroke-width="1.208" stroke-linecap="round" stroke-linejoin="round"/><path d="M170.882 121.82h59.973" stroke="#E0E0F5" stroke-width="1.208" stroke-linecap="square"/><circle cx="161.701" cy="146.909" r="33.046" fill="#E0E0F5"/><path fill-rule="evenodd" clip-rule="evenodd" d="M178.781 164.241l-.001.001c-.49.465-.978.928-1.492 1.342-.368.265-.736.474-1.078.579-.737-1.287-1.702-2.634-2.684-4.004-.984-1.374-1.985-2.771-2.79-4.155-.788-1.369-3.629-6.474-3.023-7.79 1.184-1.738 15.94-2.132 18.042-1.027.026.264.052.552.052.816a24.189 24.189 0 0 1-6.917 14.134l-.109.104zm-17.09 7.028a24.29 24.29 0 0 1-9.31-1.841c.446-2.053 6.967-15.924 9.573-15.425 2.024.395 9.152 12.24 9.65 15.136a24.037 24.037 0 0 1-9.913 2.13zm-17.201-7.132c-3.709-3.711-6.235-8.607-6.946-14.055 1.712-.819 6.792-.866 9.173-.889h.002c.22-.002.416-.003.586-.006 2.075 0 6.994.369 8.362 1.159.381 3.574-3.572 9.499-6.019 13.168-.257.384-.496.743-.713 1.072l-.28.444c-.341.541-.66 1.046-.93 1.502v.026h-.027l-.007.016-.01.022c-.022.048-.047.105-.088.146-.027-.025-.053-.025-.078-.025-1.079-.791-2.105-1.632-3.025-2.58zm.001-34.427a22.008 22.008 0 0 1 2.498-2.212c1.419 1.764 9.31 13.057 8.179 15.503a2.352 2.352 0 0 0-.154.242c-.104.172-.23.381-.293.443-1.788 1.868-13.729 1.29-17.281 1.053a24.209 24.209 0 0 1 7.051-15.029zm17.199-7.133c3.236 0 6.366.631 9.18 1.79-.816 3.869-7.207 14.791-9.388 15.555-1.581.052-8.996-11.213-9.944-15.134a24.159 24.159 0 0 1 10.152-2.211zm13.887 4.342a25.636 25.636 0 0 1 3.314 2.79 24.304 24.304 0 0 1 6.917 13.977c-3.078.685-6.417.79-9.861.816-1.738 0-6.577-.29-7.89-.87-1.224-.511-.265-2.757.617-4.823l.001-.001c.16-.375.318-.745.46-1.097 1.421-3.448 4.602-8.318 6.442-10.792zm7.734-1.632c-5.549-5.527-13.177-8.976-21.62-8.976-8.442 0-16.096 3.449-21.62 8.976a30.437 30.437 0 0 0-8.967 21.637c0 8.448 3.417 16.081 8.967 21.634a30.474 30.474 0 0 0 21.62 8.95c8.443 0 16.071-3.42 21.62-8.95 5.523-5.553 8.942-13.186 8.942-21.634 0-8.45-3.419-16.11-8.942-21.637zm-26.776 20.425c-.682 0-1.212.527-1.212 1.212 0 .657.53 1.21 1.212 1.21.659 0 1.211-.553 1.211-1.21 0-.685-.552-1.212-1.211-1.212zm2.368-3.289a1.237 1.237 0 0 0-1.737 0 1.208 1.208 0 0 0 0 1.71 1.239 1.239 0 0 0 1.737 0 1.208 1.208 0 0 0 0-1.71zm3.996-.659c0-.684-.552-1.21-1.208-1.21-.686 0-1.235.526-1.235 1.21 0 .658.549 1.211 1.235 1.211.656 0 1.208-.553 1.208-1.211zm3.288 2.369a1.204 1.204 0 0 0 0-1.71 1.202 1.202 0 0 0-1.708 0 1.16 1.16 0 0 0 0 1.71 1.204 1.204 0 0 0 1.708 0zm.658 4.001c.659 0 1.212-.553 1.212-1.21 0-.685-.553-1.212-1.212-1.212-.683 0-1.237.527-1.237 1.212 0 .657.554 1.21 1.237 1.21zm-2.366 3.29a1.205 1.205 0 0 0 1.708 0 1.209 1.209 0 1 0-1.708-1.712 1.163 1.163 0 0 0 0 1.712zm-4.023.659c0 .656.549 1.21 1.235 1.21.656 0 1.208-.554 1.208-1.21 0-.685-.552-1.211-1.208-1.211-.686 0-1.235.526-1.235 1.211zm-3.29-2.371a1.21 1.21 0 0 0 0 1.712 1.24 1.24 0 0 0 1.737 0 1.21 1.21 0 0 0 0-1.712 1.244 1.244 0 0 0-1.737 0z" fill="#fff"/><rect x="110.827" y="230.472" width="138.468" height="12.924" rx="2.915" fill="#E7EBED"/><rect x="110.827" y="252.626" width="120.006" height="12.924" rx="2.915" fill="#E7EBED"/></g><g filter="url(#c)"><path fill="#E0E0F5" d="M92.456 343.372h72.941v5.835H92.456z"/><rect x="59" y="297.527" width="167.831" height="226.334" rx="15.596" fill="#fff"/><path fill-rule="evenodd" clip-rule="evenodd" d="M73.621 312.148H212.21v138.589H73.621V312.148z" fill="#FFE2A2"/><circle cx="145.26" cy="381.443" r="39.714" fill="#fff"/><path fill-rule="evenodd" clip-rule="evenodd" d="M117.958 346.279l14.893 12.824s-10.192 11.17-10.192 22.339c0 11.17 10.192 19.93 10.192 19.93l-14.893 15.033s-17.1-14.705-17.1-34.963c0-20.258 17.1-35.163 17.1-35.163z" fill="#fff" stroke="#FBE5B4" stroke-width="2.456" stroke-linecap="round" stroke-linejoin="round"/><circle cx="145.261" cy="381.442" r="17.375" stroke="#FBE5B4" stroke-width="2.456"/><circle cx="137.815" cy="371.514" r="2.482" fill="#FBE5B4"/><circle cx="152.707" cy="371.514" r="2.482" fill="#FBE5B4"/><circle cx="156.43" cy="383.924" r="2.482" fill="#FBE5B4"/><circle cx="134.092" cy="383.924" r="2.482" fill="#FBE5B4"/><circle cx="145.26" cy="392.612" r="2.482" fill="#FBE5B4"/><circle cx="145.262" cy="381.442" r="7.446" fill="#FBE5B4"/><rect x="73.622" y="468.325" width="138.589" height="12.935" rx="2.918" fill="#E7EBED"/><rect x="73.621" y="490.498" width="120.11" height="12.935" rx="2.918" fill="#E7EBED"/></g><g filter="url(#d)"><path fill="#E0E0F5" d="M898.808 347.571h72.878v5.83h-72.878z"/><rect x="865.381" y="297.625" width="167.685" height="226.137" rx="15.582" fill="#fff"/><path fill-rule="evenodd" clip-rule="evenodd" d="M879.989 312.234h138.471v138.468H879.989V312.234z" fill="#FFCECE"/><path fill-rule="evenodd" clip-rule="evenodd" d="M914.443 349.894a1.933 1.933 0 0 0-1.933 1.933v2.473h-1.004c-.908 0-1.669.625-1.877 1.469h-1.061a1.932 1.932 0 0 0-1.932 1.932v53.407c0 1.067.865 1.933 1.932 1.933h81.309a1.933 1.933 0 0 0 1.933-1.933v-53.407a1.932 1.932 0 0 0-1.933-1.932h-1.061a1.933 1.933 0 0 0-1.876-1.469h-1.005v-2.473a1.933 1.933 0 0 0-1.933-1.933h-2.009a1.933 1.933 0 0 0-1.932 1.933v2.473h-1.005c-.907 0-1.668.625-1.876 1.469h-2.993v-3.942a1.933 1.933 0 0 0-1.932-1.933H926.19a1.934 1.934 0 0 0-1.933 1.933v3.942h-2.992a1.933 1.933 0 0 0-1.876-1.469h-1.005v-2.473a1.933 1.933 0 0 0-1.932-1.933h-2.009z" fill="#fff"/><path fill="#FFCECE" d="M909.344 361.06h79.758v6.381h-79.758z"/><rect x="879.99" y="468.702" width="138.468" height="12.924" rx="2.915" fill="#E7EBED"/><rect x="879.989" y="490.856" width="120.006" height="12.924" rx="2.915" fill="#E7EBED"/></g><g filter="url(#e)"><path fill="#E0E0F5" d="M837.427 109.341h72.878v5.83h-72.878z"/><rect x="804" y="59.395" width="167.685" height="226.137" rx="15.582" fill="#fff"/><path fill-rule="evenodd" clip-rule="evenodd" d="M818.608 74.004h138.468v138.468H818.608V74.004z" fill="#C4FFC2"/><path fill="#fff" d="M883.928 107.709h8.954v80.59h-8.954z"/><path fill-rule="evenodd" clip-rule="evenodd" d="M872.734 123.182a3.229 3.229 0 0 1 4.116-3.104l24.883 7.109a3.229 3.229 0 1 1-1.774 6.209l-24.883-7.11a3.228 3.228 0 0 1-2.342-3.104zm0 13.431a3.229 3.229 0 0 1 4.116-3.104l24.883 7.109a3.229 3.229 0 1 1-1.774 6.209l-24.883-7.11a3.228 3.228 0 0 1-2.342-3.104zm0 13.432a3.229 3.229 0 0 1 4.116-3.104l24.883 7.109a3.23 3.23 0 0 1-1.774 6.209l-24.883-7.109a3.23 3.23 0 0 1-2.342-3.105zm0 13.431a3.229 3.229 0 0 1 4.116-3.104l24.883 7.109a3.23 3.23 0 0 1-1.774 6.209l-24.883-7.109a3.23 3.23 0 0 1-2.342-3.105z" fill="#fff" stroke="#C4FFC2" stroke-width="1.581"/><circle cx="888.404" cy="105.47" r="13.432" fill="#fff"/><circle cx="888.404" cy="105.47" r="6.716" fill="#C4FFC2"/><circle cx="888.404" cy="183.821" r="11.193" fill="#fff"/><circle cx="888.405" cy="183.821" r="4.477" fill="#C4FFC2"/><rect x="818.609" y="230.472" width="138.468" height="12.924" rx="2.915" fill="#E7EBED"/><rect x="818.608" y="252.626" width="120.006" height="12.924" rx="2.915" fill="#E7EBED"/></g><path d="M798.348 327.793l.034-.018.009-.01c1.481-.988 4.901-1.692 4.901-1.692.967-.229 1.148-.634 1.148-.634l-.222-3.875-.189-3.244s-2.817 1.134-5.974-.953c-2.274-1.503-6.534-1.093-10.758 0-.947.245-3.146 1.4-4.01 1.599-2.957 1.153-6.255 4.699-6.207 5.724.081 1.725 6.711 1.792 12.915 3.041-.45 1.004-1.337 1.454-1.805 2.25-.894 1.521-1.187 3.081-.505 3.584.422.312 1.071-.201 1.897-.855.579-.459 1.245-.986 1.981-1.346 1.294-.634 5.281-2.765 6.477-3.405a2.48 2.48 0 0 0 .308-.166z" fill="url(#f)"/><path d="M890.084 230.867s-15.163 9.611-22.925 24.44c-9.158 17.495-20.296 37.392-25.341 41.009-9.322 6.683-42.551 21.134-42.551 21.134s-.869 2.07-.066 5.103c.841 3.155 2.497 4.05 2.497 4.05s46.459-4.152 57.261-10.88c10.802-6.727 34.617-33.544 34.617-33.544l-3.492-51.312z" fill="url(#g)"/><path d="M889.367 230.861s-17.389 7.821-23.838 28.288c-11.568 36.709-19.135 91.688-20.421 138.709 0 0 17.257 6.017 44.361 1.255 27.245-4.793-.102-168.252-.102-168.252z" fill="url(#h)"/><path d="M959.366 622.323h18.703c2.354-1.281 4.451-4.21 5.114-8.574.912-6.031 7.665-9.32 9.129-14.25 1.459-4.929-6.026-11.872-6.026-11.872l-1.25-1.615-1.301-1.674-12.411 2.925s-.308 2.959-.492 6.728c-.137 2.72-.206 5.859-.056 8.618.364 6.574-1.836 13.658-7.678 14.939-4.323.938-4.13 3.503-3.732 4.775z" fill="url(#i)"/><path d="M850.816 622.324h42.773c2.059-2.514 1.301-11.782.989-14.81-.065-.608-.107-.964-.107-.964s-14.607-11.692-16.615-2.741c-.06.283-.137.557-.218.827-2.529 8.373-13.867 12.18-20.41 13.238-4.255.69-5.83 2.904-6.412 4.45z" fill="url(#j)"/><path d="M858.969 383.396s2.217 27.689 4.823 60.977c3.544 45.215 7.802 100.756 8.226 111.279.728 18.271 3.651 47.498 3.651 47.498s6.933 6.942 20.808 4.017c0 0 12.365-41.72 15.9-85.864.055-.724.111-1.452.162-2.18 3.287-44.937 8.397-139.564 8.397-139.564l-61.967 3.837z" fill="url(#k)"/><path d="M869.096 386.684s39.978 100.285 66.26 147.415c26.287 47.129 34.5 60.282 34.5 60.282s15.06-6.026 16.43-10.138c0 0-10.053-90.987-27.656-113.164-9.947-12.532-21.631-50.144-22.178-63.297-.548-13.153-3.561-39.185-3.561-39.185l-63.795 18.087z" fill="url(#l)"/><path d="M879.047 240.488c15.621 4.934 39.396-6.886 39.396-6.886s-11.145-12.314-10.392-34.804l-12.077 9.74-8.205 6.617s.034 3.902.929 10.737c.163 1.246.355 2.591.582 4.03.18 1.148-.325 2.305-1.314 2.917-5.692 3.525-8.919 7.649-8.919 7.649z" fill="url(#m)"/><path d="M857.247 385.706c.471.39 1.019.625 1.643.625 5.868-.081 22.975 3.183 37.449 1.692 12.202-1.173 23.004-4.788 34.602-9.992 1.541-.689 5.085-2.583 5.008-4.309-.052-1.888-.24-4.621-.475-8.069-.822-11.979-2.252-32.584-.856-56.359.252-4.424.381-8.818.398-13.14.119-32.221-7.758-59.412-20.584-69.001 0 0-7.454 3.875-13.646 5.853-6.065 1.941-9.193 1.551-12.339-.539 0 0-6.129 3.045-8.744 5.902-6.06 6.612-10.794 15.392-13.922 27.993-2.662 10.724-5.153 26.361-6.013 46.401-.398 9.084-2.911 72.626-2.521 72.943z" fill="#fff"/><path d="M933.112 279.241s14.246-30.648-4.949-45.849c-7.032-5.569-14.888-3.946-14.888-3.946s-38.643 12.139-40.556 70.477c-.753 13.294-4.325 61.718 1.44 106.864 0 0 32.163 12.541 71.597-12.206l-12.644-115.34z" fill="url(#n)"/><path d="M881.005 214.739s28.135 4.677 30.776-12.901c2.641-17.581 8.05-28.815-9.801-32.546-17.851-3.73-22.357 2.45-24.669 8.104-2.306 5.653-3.556 35.672 3.694 37.343z" fill="url(#o)"/><path d="M907.095 371.58c1.484-1.122 3.527-6.517 3.527-6.517l11.733 4.722-2.962 5.96-3.265.01c-3.566.276-7.508-2.668-9.033-4.175z" fill="url(#p)"/><path d="M916.347 370.104c-4.797-1.153-9.444-3.644-9.444-3.644s22.379-56.207 22.289-60.534c-.089-4.331-27.522-51.117-26.226-57.252 1.296-6.136 3.279-11.913 9.38-14.482 6.102-2.569 9.463-3.663 13.244-2.554 3.781 1.11 9.401 7.178 13.942 24.119 6.406 23.903 14.803 44.299 14.81 50.359.01 18.123-30.796 64.222-30.796 64.222s-3.432.675-7.199-.234z" fill="url(#q)"/><path d="M926.008 372.704c-10.827 2.922-23.788-2.104-28.916-4.981-.848 6.233-1.787 19.276 1.246 21.584 3.792 2.885 19.568 4.127 23.841-1.006 3.418-4.107 3.977-12.11 3.829-15.597z" fill="url(#r)"/><path d="M911.807 200.143s-2.889-.484-2.423-4.463c.467-3.979.458-9.183-2.773-8.211-3.235.968-3.394 3.559-4.725 2.048-1.327-1.512-1.352-7.885-10.973-8.331-9.621-.445-13.533 2.908-18.006.938-4.472-1.97-4.712-8.746-4.712-8.746s1.271 2.42 3.193 3.191c0 0-7.464-10.215 1.177-17.222 8.641-7.006 17.453-2.419 22.456-2.115 11.021.668 18.138 1.327 21.738 8.574 3.603 7.243 2.118 27.364-4.952 34.337z" fill="url(#s)"/><path fill-rule="evenodd" clip-rule="evenodd" d="M575.82 427.66l-20.082 98.664 99.137 20.173 20.076-98.665-99.131-20.172z" fill="#DEBA9A"/><path fill-rule="evenodd" clip-rule="evenodd" d="M606.718 433.97l-20.082 98.663 99.137 20.173 20.077-98.665-99.132-20.171z" fill="url(#t)"/><path fill="#fff" d="M603.823 470.184l89.622 16.899-5.51 29.226-89.623-16.899z"/><path opacity=".2" d="M617.038 491.835l-.11-1.496-2.472-.459-.65 1.355-2.258-.42 3.9-7.178 2.743.509 1.095 8.106-2.248-.417zm-.224-3.261l-.096-1.31a68.462 68.462 0 0 1-.081-1.13c-.025-.46-.038-.789-.037-.986a19.81 19.81 0 0 1-.35.839 77.834 77.834 0 0 1-1.054 2.286l1.618.301zm11.181-2.576l-.851 4.58c-.184.995-.611 1.715-1.278 2.158-.663.44-1.525.562-2.587.365-1.037-.193-1.786-.606-2.246-1.241-.457-.634-.592-1.448-.408-2.444l.859-4.626 2.066.383-.829 4.465c-.099.538-.071.947.085 1.227.156.28.43.457.822.53.42.078.746.014.978-.19.235-.208.404-.586.506-1.134l.827-4.454 2.056.381zm3.541 8.528l-2.055-.381 1.1-5.928-1.858-.345.312-1.681 5.767 1.071-.313 1.681-1.852-.344-1.101 5.927zm10.768-1.947c-.238 1.281-.732 2.196-1.484 2.745-.752.55-1.733.712-2.944.487-1.193-.221-2.047-.726-2.561-1.514-.511-.788-.647-1.822-.409-3.102.235-1.266.73-2.174 1.485-2.723.759-.551 1.743-.715 2.95-.491 1.211.225 2.067.727 2.568 1.505.502.779.633 1.81.395 3.093zm-5.235-.972c-.273 1.471.102 2.302 1.125 2.492.521.097.939-.011 1.255-.321.32-.311.55-.844.69-1.6.141-.76.117-1.344-.073-1.753-.186-.411-.532-.664-1.038-.758-1.031-.191-1.684.456-1.959 1.94zM652.223 493c-.158.85-.532 1.461-1.121 1.832-.585.369-1.339.467-2.262.296l-.578-.107-.468 2.524-2.056-.382 1.413-7.608 2.633.489c.961.178 1.644.522 2.048 1.031.404.51.535 1.151.391 1.925zm-3.65.345l.375.07c.309.057.57.016.782-.124.216-.14.353-.362.409-.667.096-.514-.141-.823-.71-.929l-.531-.098-.325 1.748zm8.567 5.935l-.11-1.495-2.472-.459-.65 1.354-2.258-.419 3.901-7.179 2.742.509 1.095 8.106-2.248-.417zm-.223-3.261l-.096-1.31a51.577 51.577 0 0 1-.081-1.129 18.516 18.516 0 0 1-.038-.987c-.064.171-.181.451-.35.84a77.834 77.834 0 0 1-1.054 2.286l1.619.3zm5.868 1.445l-.514 2.769-2.055-.382 1.412-7.608 2.493.463c2.068.384 2.962 1.325 2.684 2.824-.163.881-.72 1.483-1.67 1.805l1.601 3.727-2.331-.433-1.099-3.068-.521-.097zm.287-1.545l.385.071c.719.133 1.137-.117 1.254-.752.098-.524-.206-.851-.91-.982l-.406-.076-.323 1.739zm7.713 5.894l-2.056-.381 1.101-5.928-1.858-.344.312-1.681 5.766 1.07-.312 1.681-1.852-.344-1.101 5.927zm8.344-.841c-.087.472-.285.87-.593 1.193-.307.32-.705.54-1.194.661-.488.118-1.036.12-1.643.008a6.765 6.765 0 0 1-1.255-.341 4.921 4.921 0 0 1-1.003-.574l.34-1.832c.355.274.733.508 1.135.701.403.189.781.317 1.135.383.305.056.539.046.7-.032a.504.504 0 0 0 .29-.371.437.437 0 0 0-.038-.287.952.952 0 0 0-.232-.291c-.11-.103-.416-.328-.918-.676-.455-.318-.787-.606-.998-.864a2.089 2.089 0 0 1-.416-.831 2.485 2.485 0 0 1 .004-1.006c.13-.701.486-1.2 1.069-1.497.583-.297 1.32-.363 2.212-.198.787.146 1.557.478 2.308.994l-.925 1.47c-.65-.458-1.234-.735-1.751-.831-.267-.05-.47-.039-.609.032a.432.432 0 0 0-.247.315c-.027.149.024.297.155.443.134.147.514.44 1.139.88.601.416.997.818 1.187 1.205.194.384.244.833.148 1.346z" fill="#000"/><path fill="#AEAEAE" d="M665.217 445.844l-17.785-3.631-5.672 27.779 17.785 3.63z"/><path fill-rule="evenodd" clip-rule="evenodd" d="M477.469 329.647l-2.379 100.658 101.141 2.384 2.372-100.658-101.134-2.384z" fill="#DEBA9A"/><path fill-rule="evenodd" clip-rule="evenodd" d="M508.996 330.411l-2.379 100.658 101.141 2.384 2.372-100.658-101.134-2.384z" fill="url(#u)"/><path fill="#AEAEAE" d="M568.672 331.79l-18.147-.44-.687 28.344 18.147.44z"/><path fill="#fff" d="M516.953 366.567l82.826 1.2-.391 27.01-82.826-1.2z"/><path opacity=".2" d="M532.136 384.109l-.317-1.325-2.283-.05-.385 1.309-2.086-.045 2.447-7.006 2.533.056 2.167 7.106-2.076-.045zm-.677-2.891l-.278-1.16a51.53 51.53 0 0 1-.238-1c-.09-.41-.149-.703-.177-.88-.033.163-.096.431-.191.804a72.054 72.054 0 0 1-.611 2.204l1.495.032zm9.646-3.943l-.093 4.229c-.02.92-.297 1.627-.83 2.122-.53.492-1.286.727-2.266.705-.958-.021-1.69-.282-2.195-.783-.502-.502-.743-1.212-.723-2.132l.094-4.273 1.908.042-.09 4.124c-.011.496.074.859.255 1.087.181.229.452.347.814.355.388.008.671-.096.849-.314.181-.22.277-.583.288-1.09l.09-4.114 1.899.042zm4.421 7.127l-1.898-.042.12-5.474-1.716-.038.034-1.552 5.325.116-.034 1.553-1.711-.038-.12 5.475zm9.368-3.32c-.026 1.182-.336 2.075-.929 2.677-.593.603-1.449.892-2.568.867-1.102-.024-1.941-.352-2.517-.983-.573-.631-.846-1.538-.82-2.72.025-1.17.336-2.056.933-2.658.6-.606 1.457-.896 2.572-.872 1.119.025 1.959.349 2.523.974.563.624.832 1.529.806 2.715zm-4.835-.106c-.03 1.359.428 2.048 1.373 2.069.481.011.84-.147 1.078-.472.241-.325.369-.836.385-1.535.015-.701-.092-1.222-.322-1.56-.227-.342-.574-.517-1.042-.528-.951-.021-1.442.655-1.472 2.026zm13.788-.968c-.017.786-.263 1.388-.737 1.807-.471.416-1.132.615-1.984.596l-.534-.012-.051 2.331-1.898-.041.153-7.027 2.432.053c.888.02 1.55.228 1.987.625.437.398.648.954.632 1.668zm-3.221.844l.346.007c.285.006.513-.069.683-.225.173-.157.263-.376.269-.658.011-.474-.247-.717-.772-.729l-.491-.01-.035 1.615zm8.547 4.067l-.317-1.324-2.283-.05-.384 1.309-2.086-.046 2.447-7.005 2.533.055 2.167 7.107-2.077-.046zm-.677-2.89l-.278-1.16a53.018 53.018 0 0 1-.237-1.001c-.091-.409-.15-.702-.178-.879-.033.163-.096.431-.191.804a69.316 69.316 0 0 1-.611 2.203l1.495.033zm5.472.437l-.056 2.557-1.898-.042.154-7.026 2.302.05c1.909.042 2.849.755 2.819 2.139-.018.814-.429 1.435-1.233 1.863l1.98 3.106-2.153-.047-1.434-2.589-.481-.011zm.031-1.427l.356.007c.663.015 1.001-.271 1.014-.857.011-.484-.309-.733-.96-.748l-.374-.008-.036 1.606zm7.776 4.156l-1.898-.042.12-5.474-1.716-.037.034-1.553 5.325.117-.034 1.552-1.711-.037-.12 5.474zm7.357-1.974a2.077 2.077 0 0 1-.357 1.156c-.228.332-.553.587-.973.767-.421.177-.912.259-1.472.247a6.065 6.065 0 0 1-1.176-.122 4.438 4.438 0 0 1-.982-.368l.037-1.692c.358.194.731.348 1.12.463.388.111.746.17 1.073.177.282.006.489-.037.623-.131a.456.456 0 0 0 .205-.375.399.399 0 0 0-.076-.252.854.854 0 0 0-.25-.226c-.114-.077-.421-.234-.922-.473-.454-.218-.794-.427-1.02-.628a1.874 1.874 0 0 1-.495-.684 2.242 2.242 0 0 1-.144-.902c.014-.648.261-1.147.74-1.499.479-.352 1.13-.518 1.953-.5.728.016 1.466.2 2.215.553l-.614 1.453c-.65-.315-1.214-.478-1.692-.489-.246-.005-.427.034-.541.118a.393.393 0 0 0-.175.318c-.003.138.065.263.203.375.142.112.526.319 1.15.622.6.285 1.013.588 1.24.907.231.316.341.711.33 1.185z" fill="#000"/><path fill-rule="evenodd" clip-rule="evenodd" d="M615.898 355.936l-14.248 79.289 79.67 14.311 14.243-79.289-79.665-14.311z" fill="#DEBA9A"/><path fill-rule="evenodd" clip-rule="evenodd" d="M640.73 360.414l-14.248 79.288 79.67 14.312 14.243-79.29-79.665-14.31z" fill="url(#v)"/><path fill="#fff" d="M641.38 392.162l67.87 11.493-3.748 22.133-67.87-11.493z"/><path opacity=".2" d="M652.65 408.584l-.104-1.127-1.871-.312-.472 1.031-1.71-.285 2.843-5.472 2.077.346.94 6.102-1.703-.283zm-.214-2.458l-.091-.987a43.95 43.95 0 0 1-.077-.851c-.026-.348-.04-.596-.042-.744-.046.13-.13.342-.252.638-.12.296-.374.876-.764 1.74l1.226.204zm8.401-2.101l-.577 3.468c-.126.754-.437 1.303-.935 1.647-.494.341-1.143.445-1.947.312-.785-.131-1.356-.433-1.712-.905-.354-.472-.468-1.085-.342-1.839l.583-3.503 1.564.26-.562 3.381c-.068.407-.041.716.081.925.121.209.331.339.628.388.317.053.562 0 .734-.157.176-.16.298-.447.367-.863l.561-3.373 1.557.259zm2.792 6.386l-1.556-.259.747-4.488-1.407-.235.212-1.273 4.366.727-.212 1.273-1.402-.233-.748 4.488zm8.099-1.62c-.162.969-.522 1.666-1.082 2.092-.559.425-1.297.561-2.214.409-.904-.151-1.555-.52-1.954-1.107-.397-.587-.514-1.366-.353-2.335.16-.959.521-1.651 1.083-2.076.565-.427 1.305-.564 2.219-.412.917.153 1.57.519 1.959 1.1.39.58.504 1.357.342 2.329zm-3.965-.66c-.185 1.114.11 1.735.885 1.864.394.066.708-.021.942-.26.237-.239.403-.644.498-1.217.096-.576.07-1.016-.079-1.322-.146-.307-.411-.493-.794-.557-.781-.13-1.264.367-1.452 1.492zm11.456.838c-.107.643-.381 1.109-.82 1.398-.437.286-1.004.372-1.703.255l-.438-.073-.318 1.912-1.556-.26.959-5.761 1.994.332c.728.121 1.248.371 1.56.75.312.378.419.861.322 1.447zm-2.749.311l.283.048c.234.039.43.004.589-.105.161-.108.261-.278.299-.509.065-.389-.118-.619-.549-.691l-.402-.067-.22 1.324zm6.548 4.359l-.104-1.127-1.872-.312-.471 1.031-1.711-.284 2.843-5.472 2.077.345.94 6.102-1.702-.283zm-.215-2.458l-.091-.987c-.022-.22-.048-.503-.077-.851a16.446 16.446 0 0 1-.042-.744c-.046.13-.13.343-.252.638-.119.296-.374.876-.763 1.74l1.225.204zm4.449 1.008l-.349 2.097-1.556-.259.959-5.762 1.888.314c1.565.261 2.254.959 2.065 2.094-.111.667-.523 1.129-1.235 1.386l1.261 2.79-1.766-.294-.872-2.3-.395-.066zm.195-1.17l.292.048c.544.091.856-.104.936-.585.066-.397-.168-.639-.701-.728l-.308-.051-.219 1.316zm5.904 4.34l-1.557-.259.747-4.489-1.407-.234.212-1.273 4.367.727-.212 1.273-1.403-.234-.747 4.489zm6.285-.752c-.06.357-.203.66-.431.908a1.817 1.817 0 0 1-.892.516c-.367.096-.78.105-1.24.029a5.045 5.045 0 0 1-.952-.24 3.685 3.685 0 0 1-.765-.419l.231-1.387a4.8 4.8 0 0 0 .867.513c.306.137.593.228.861.273.232.038.408.027.528-.034a.378.378 0 0 0 .214-.284.33.33 0 0 0-.033-.216.703.703 0 0 0-.179-.216c-.084-.076-.319-.242-.703-.498-.347-.233-.602-.446-.764-.637a1.575 1.575 0 0 1-.326-.622 1.862 1.862 0 0 1-.011-.759c.088-.531.35-.912.786-1.145.435-.232.991-.293 1.666-.18.596.099 1.181.338 1.755.717l-.676 1.123c-.498-.337-.942-.538-1.334-.603-.202-.033-.355-.022-.459.033a.328.328 0 0 0-.182.241c-.019.113.022.224.123.333.103.109.394.324.872.647.46.306.764.604.913.893.152.287.195.625.131 1.014z" fill="#000"/><path fill="#AEAEAE" d="M687.74 368.836l-14.293-2.577-4.026 22.324 14.294 2.577z"/><path d="M716.501 436.434l-229.205 7.841" stroke="#5B325F" stroke-width="2.923" stroke-linecap="square"/><path clip-rule="evenodd" d="M707.976 498.056L500.332 482.64l207.644 15.416z" stroke="#5B325F" stroke-width="2.923" stroke-linecap="square"/><path d="M697.487 394.179l-28.935 157.502m-7.528-157.502l-11.37 154.743M634.603 396.61l-3.649 147.679m-22.36-147.679l3.204 144.655m-56.851-140.764l18.828 133.622m7.652-133.622l10.322 136.218m-63.964-136.218l27.162 129.105m-54.616-126.719l34.194 120.759" stroke="#5B325F" stroke-width="2.923" stroke-linecap="square"/><path d="M791.159 327.253l-57.674 30.286a1.465 1.465 0 0 0-.757 1.023l-37.21 197.365s16.917 44.626 14.613 49.219c-2.304 4.593-170.125 2.407-170.125 2.407" stroke="#5B325F" stroke-width="4.384" stroke-linecap="round"/><path d="M724.438 390.949L471.11 404.465s33.48 96.064 44.271 109.746c10.791 13.681 176.547 41.716 176.547 41.716" stroke="#5B325F" stroke-width="4.384" stroke-linecap="round" stroke-linejoin="round"/><path d="M660.538 605.115c0 8.117 6.576 14.695 14.686 14.695s14.687-6.578 14.687-14.695-6.577-14.695-14.687-14.695-14.686 6.578-14.686 14.695zm-110.677 0c0 8.117 6.577 14.695 14.687 14.695s14.686-6.578 14.686-14.695-6.576-14.695-14.686-14.695-14.687 6.578-14.687 14.695z" fill="#fff" stroke="#5B325F" stroke-width="4.384"/><path d="M236.171 239.115l-.02 3.009s.865 9.405-11.351 10.781c-12.21 1.375-21.467-3.672-21.134-10.933 1.097-5.62 2.307-9.481 2.387-14.13.034-1.729-.093-3.565-.432-5.634l23.668-.448 6.969 1.079-.087 16.276z" fill="url(#w)"/><path d="M236.171 239.115l-.02 3.009s.865 9.405-11.351 10.781c-12.21 1.375-21.467-3.672-21.134-10.933 1.097-5.62 2.307-9.481 2.387-14.13.034-1.729-.093-3.565-.432-5.634l23.668-.448 6.969 1.079-.087 16.276z" fill="url(#x)"/><path d="M203.812 218.592c2.747 14.017 21.886 16.866 30.125 15.982 2.321-.246 3.777-.523 3.777-.523 2.614-.663 4.004-7.876 4.682-12.999 1.343-10.124-.353-24.993-2.155-28.797-2.713-5.721-7.827-11.91-27.026-7.444-19.212 4.473-12.927 15.822-9.403 33.781z" fill="url(#y)"/><path d="M248.189 520.317c-.126-2.29 0-11.081 0-15.039h29.435c3.035 35.867 4.745 72.821 10.59 104.482h-16.701c-4.688-1.671-21.622-58.008-23.324-89.443z" fill="url(#z)"/><path d="M270.495 631.479c-3.924-2.271-1.488-21.72-1.488-21.72s18.274-13.872 20.788-3.249c2.514 10.617 17.521 13.823 25.973 15.122 5.832.896 7.282 8.03 7.841 9.847h-53.114z" fill="url(#A)"/><path d="M271.723 385.19s4.396 16.786 5.274 41.079c.799 22.227 6.953 51.512 9.547 82.166-15.854 3.967-25.897 5.183-52.234 0-5.699-29.857-27.199-100.851-26.86-118.962.379-20.451 64.273-4.283 64.273-4.283z" fill="url(#B)"/><path d="M192.186 622.451c11.531 2.713 19.205 0 19.205 0l11.69-116.792h-33.4c2.433 47.333 2.505 116.792 2.505 116.792z" fill="url(#C)"/><path d="M215.296 631.995s.377-5.851 0-9.571c-.512-5.052-3.07-12.665-3.07-12.665l-1.67 4.75s1.67-12.665-8.351-12.665c-10.02 0-9.185 11.873-9.185 11.873l-.835-3.166s-3.274 6.56-4.021 11.081c-.661 3.998 0 10.363 0 10.363h27.132z" fill="url(#D)"/><path d="M181.13 383.669c-8.905 5.52-.984 55.557-1.809 85.414-.206 7.467-.812 20.791 0 36.576 10.987 5.758 23.064 5.386 52.319 0l16.888-116.111s-58.5-11.393-67.398-5.879z" fill="url(#E)"/><path d="M176.488 374.094c-.086.984-.173 1.981-.266 2.984-.233 2.542-.825 11.809 1.995 11.872 0 0 7.076 3.009 20.309 5.608 9.842 1.937 23.083 3.653 39.349 3.747 25.875.158 35.671-8.301 35.671-8.301 1.117.018-.586-5.117-2.122-29.542-.519-8.277-1.024-18.761-1.383-32.015-.326-11.929-.545-26.097-.565-42.902-.02-11.904-2.686-30.851-12.216-39.064 0 0-19.194-3.43-20.565-3.43-1.371 0 .686 8.232-13.145 9.268-8.838.662-19.897-5.501-19.897-10.333 0 0-30.709 4.952-40.345 18.004-5.899 7.992 1.629 29.586 16.246 46.315.206.24.419.473.625.707l-.177 1.752-.003.033-.002.033c-.013.166-.026.337-.044.503l-.001.006a122.264 122.264 0 0 0-.166 1.868l-.099 1.287c-.027.302-.047.611-.073.921-.034.504-.067 1.009-.107 1.52-.02.259-.033.511-.053.769-.033.486-.06.972-.093 1.464l-.04.65-.12 2.132c-.006.057-.013.114-.013.17-.04.688-.073 1.382-.106 2.082-.014.177-.02.341-.027.517v.003c-.033.655-.067 1.31-.093 1.978a3.869 3.869 0 0 0-.013.29 896.69 896.69 0 0 0-.207 4.94c0 .044 0 .082-.006.126a3827.71 3827.71 0 0 0-.319 8.787c-.007.12-.007.246-.014.366l-.002.058c-.019.555-.039 1.116-.064 1.677l-.08 2.29c-.007.233-.02.479-.027.719-.026.631-.046 1.262-.073 1.899-.013.258-.02.517-.033.776-.033.744-.06 1.488-.093 2.245l-.02.366c-.04.89-.073 1.792-.12 2.7l-.018.433-.002.034-.004.086c-.032.729-.064 1.464-.102 2.204-.014.208-.02.416-.033.625-.04.889-.087 1.785-.14 2.693v.057c-.047.953-.107 1.905-.16 2.87-.013.177-.02.347-.033.518-.046.794-.093 1.583-.146 2.378l-.04.643-.027.386c-.124 1.798-.249 3.613-.392 5.449-.02.227-.033.448-.053.675-.067.77-.127 1.546-.193 2.322l-.06.782z" fill="url(#F)"/><path fill-rule="evenodd" clip-rule="evenodd" d="M349.934 270.839c-3.38-5.272-19.775 12.941-34.978 27.821-10.486 10.263-4.057 25.911 8.751 8.332 6.002-8.238 13.707-15.58 16.052-19.968 1.984-3.712 7.008-.672 11.08-1.797 2.394-.661 8.073-2.121 8.297-3.158.224-1.037-1.18-1.33-1.18-1.33s2.808-.61 2.756-1.401c-.052-.792-.903-1.283-.903-1.283s1.456-.759 1.329-1.732c-.128-.973-1.87-1.485-1.87-1.485s.9-1.012-.132-1.608c-1.031-.596-2.543-.202-3.672-.185-2.621.041-5.903 1.222-7.272 1.294-.588.031 2.008-3.084 1.742-3.5z" fill="url(#G)"/><path d="M256.393 246.364s9.185 1.583 15.764 7.475c7.382 9.822 29.319 62.403 20.867 79.991-11.934 18.595-20.867-15.694-20.867-15.694s-1.569-61.483-15.764-71.772z" fill="url(#H)"/><path d="M288.185 339.455c13.358-2.729 35.321-29.717 54.288-51.432 0 0-3.447-7.478-13.403-5.929 0 0-36.726 26.091-45.125 33.96-8.394 7.865-4.853 25.259 4.24 23.401z" fill="url(#I)"/><path fill-rule="evenodd" clip-rule="evenodd" d="M321.695 275.291h-66.018l-15.065 44.37-35.792.645.341.945 34.285 2.058h66.073l16.176-48.018z" fill="url(#J)"/><path d="M275.424 316.435c0 1.369-2.284 4.566-3.426 5.993l-3.427 1.712-1.714 4.281 5.141 4.281c2.57-.286 8.052-.856 9.423-.856 1.713 0 5.14-3.425 5.997-4.281.685-.685 2.57-4.281 3.427-5.993.856-.857 0-6.85-.857-8.562-.857-1.712-3.427-2.569-4.284-1.712-.856.856-2.57 4.28-2.57 5.993 0 1.712-3.426 3.424-4.283 2.568-.685-.685-.286-3.139 0-4.281.857-2.568-.857-3.71-1.713-3.424-.572.856-1.714 2.911-1.714 4.281z" fill="url(#K)"/><path d="M163.307 259.99c-5.899 7.993-3.635 32.045 4.638 50.433 4.846 10.773 9.475 24.395 16.33 30.706 6.855 6.311 88.751-5.472 88.751-5.472l-3.428-12.348s-61.009-.72-65.807-3.429c-4.799-2.71-14.396-76.829-34.496-65.515-2.39 1.678-4.456 3.549-5.988 5.625z" fill="url(#L)"/><path d="M205.661 216.336c.885 4.636-.95 5.574-.95 5.574l-4.175-16.622s-1.126-4.609-.627-9.499c.192-1.887.627-3.817 1.462-5.54 3.455-7.125 22.689-11.818 33.401-4.749 5.297 3.495 6.653 8.29 6.653 8.29.22 2.738-16.884.631-21.546 4.214-4.662 3.583-.22 9.481-5.553 11.588-5.333 2.107-9.556 2.107-8.665 6.744z" fill="#707570"/><path d="M241.425 193.79c.219 2.738-16.885.631-21.546 4.214 0 0-6.21.442-10.158 0-3.86-.433-9.813-2.215-9.813-2.215.193-1.887.628-3.817 1.463-5.54 3.455-7.125 22.689-11.818 33.401-4.749 5.296 3.495 6.653 8.29 6.653 8.29z" fill="#404240"/><path d="M241.425 193.79c.219 2.738-16.885.631-21.546 4.214 0 0-6.21.442-10.158 0-3.86-.433-9.813-2.215-9.813-2.215.193-1.887.628-3.817 1.463-5.54 3.455-7.125 22.689-11.818 33.401-4.749 5.296 3.495 6.653 8.29 6.653 8.29z" fill="url(#M)"/><defs><filter id="b" x="37.784" y=".961" width="284.554" height="343.006" filterUnits="userSpaceOnUse" color-interpolation-filters="sRGB"><feFlood flood-opacity="0" result="BackgroundImageFix"/><feColorMatrix in="SourceAlpha" values="0 0 0 0 0 0 0 0 0 0 0 0 0 0 0 0 0 0 127 0" result="hardAlpha"/><feOffset/><feGaussianBlur stdDeviation="29.217"/><feComposite in2="hardAlpha" operator="out"/><feColorMatrix values="0 0 0 0 0 0 0 0 0 0 0 0 0 0 0 0 0 0 0.15 0"/><feBlend in2="BackgroundImageFix" result="effect1_dropShadow"/><feBlend in="SourceGraphic" in2="effect1_dropShadow" result="shape"/></filter><filter id="c" x=".515" y="239.042" width="284.802" height="343.305" filterUnits="userSpaceOnUse" color-interpolation-filters="sRGB"><feFlood flood-opacity="0" result="BackgroundImageFix"/><feColorMatrix in="SourceAlpha" values="0 0 0 0 0 0 0 0 0 0 0 0 0 0 0 0 0 0 127 0" result="hardAlpha"/><feOffset/><feGaussianBlur stdDeviation="29.243"/><feComposite in2="hardAlpha" operator="out"/><feColorMatrix values="0 0 0 0 0 0 0 0 0 0 0 0 0 0 0 0 0 0 0.15 0"/><feBlend in2="BackgroundImageFix" result="effect1_dropShadow"/><feBlend in="SourceGraphic" in2="effect1_dropShadow" result="shape"/></filter><filter id="d" x="806.947" y="239.191" width="284.554" height="343.006" filterUnits="userSpaceOnUse" color-interpolation-filters="sRGB"><feFlood flood-opacity="0" result="BackgroundImageFix"/><feColorMatrix in="SourceAlpha" values="0 0 0 0 0 0 0 0 0 0 0 0 0 0 0 0 0 0 127 0" result="hardAlpha"/><feOffset/><feGaussianBlur stdDeviation="29.217"/><feComposite in2="hardAlpha" operator="out"/><feColorMatrix values="0 0 0 0 0 0 0 0 0 0 0 0 0 0 0 0 0 0 0.1 0"/><feBlend in2="BackgroundImageFix" result="effect1_dropShadow"/><feBlend in="SourceGraphic" in2="effect1_dropShadow" result="shape"/></filter><filter id="e" x="745.566" y=".961" width="284.554" height="343.006" filterUnits="userSpaceOnUse" color-interpolation-filters="sRGB"><feFlood flood-opacity="0" result="BackgroundImageFix"/><feColorMatrix in="SourceAlpha" values="0 0 0 0 0 0 0 0 0 0 0 0 0 0 0 0 0 0 127 0" result="hardAlpha"/><feOffset/><feGaussianBlur stdDeviation="29.217"/><feComposite in2="hardAlpha" operator="out"/><feColorMatrix values="0 0 0 0 0 0 0 0 0 0 0 0 0 0 0 0 0 0 0.1 0"/><feBlend in2="BackgroundImageFix" result="effect1_dropShadow"/><feBlend in="SourceGraphic" in2="effect1_dropShadow" result="shape"/></filter><linearGradient id="f" x1="792.577" y1="329.566" x2="790.843" y2="316.09" gradientUnits="userSpaceOnUse"><stop stop-color="#D9834A"/><stop offset="1" stop-color="#EFA26F"/></linearGradient><linearGradient id="g" x1="904.085" y1="287.573" x2="816.611" y2="263.092" gradientUnits="userSpaceOnUse"><stop stop-color="#E06416"/><stop offset=".399" stop-color="#F88842"/><stop offset="1" stop-color="#F78F4D"/></linearGradient><linearGradient id="h" x1="828.57" y1="307.428" x2="927.478" y2="307.733" gradientUnits="userSpaceOnUse"><stop stop-color="#EB6A19"/><stop offset=".428" stop-color="#F28B4A"/><stop offset="1" stop-color="#EB6A19"/></linearGradient><linearGradient id="i" x1="992.501" y1="610.42" x2="975.837" y2="596.561" gradientUnits="userSpaceOnUse"><stop/><stop offset="1" stop-color="#333"/></linearGradient><linearGradient id="j" x1="875.057" y1="622.324" x2="877.111" y2="608.109" gradientUnits="userSpaceOnUse"><stop/><stop offset="1" stop-color="#333"/></linearGradient><linearGradient id="k" x1="920.936" y1="420.461" x2="843.588" y2="535.065" gradientUnits="userSpaceOnUse"><stop stop-color="#134E78"/><stop offset="1" stop-color="#2A73A7"/></linearGradient><linearGradient id="l" x1="986.286" y1="474.454" x2="886.973" y2="443.511" gradientUnits="userSpaceOnUse"><stop stop-color="#134E78"/><stop offset="1" stop-color="#2A73A7"/></linearGradient><linearGradient id="m" x1="898.745" y1="206.487" x2="906.608" y2="241.436" gradientUnits="userSpaceOnUse"><stop stop-color="#D9834A"/><stop offset="1" stop-color="#EFA26F"/></linearGradient><linearGradient id="n" x1="881.131" y1="309.961" x2="925.354" y2="338.026" gradientUnits="userSpaceOnUse"><stop stop-color="#F78E4D"/><stop offset="1" stop-color="#E4610F"/></linearGradient><linearGradient id="o" x1="878.91" y1="187.475" x2="904.574" y2="215.303" gradientUnits="userSpaceOnUse"><stop stop-color="#FAB485"/><stop offset="1" stop-color="#EFA26F"/></linearGradient><linearGradient id="p" x1="918.393" y1="368.212" x2="910.172" y2="376.331" gradientUnits="userSpaceOnUse"><stop stop-color="#D9834A"/><stop offset="1" stop-color="#EFA26F"/></linearGradient><linearGradient id="q" x1="955.803" y1="330.036" x2="894.79" y2="289.993" gradientUnits="userSpaceOnUse"><stop stop-color="#E06416"/><stop offset=".399" stop-color="#F88842"/><stop offset="1" stop-color="#F78F4D"/></linearGradient><linearGradient id="r" x1="906.519" y1="367.697" x2="903.537" y2="389.777" gradientUnits="userSpaceOnUse"><stop stop-color="#F77727"/><stop offset="1" stop-color="#E56210"/></linearGradient><linearGradient id="s" x1="893.162" y1="155.607" x2="912.02" y2="195.076" gradientUnits="userSpaceOnUse"><stop stop-color="#474847"/><stop offset=".766" stop-color="#2F302F"/></linearGradient><linearGradient id="t" x1="645.517" y1="503.659" x2="636.168" y2="542.746" gradientUnits="userSpaceOnUse"><stop stop-color="#EFD3BD"/><stop offset="1" stop-color="#C2A994"/></linearGradient><linearGradient id="u" x1="557.729" y1="377.764" x2="560.242" y2="464.373" gradientUnits="userSpaceOnUse"><stop stop-color="#EFD3BD"/><stop offset="1" stop-color="#C2A994"/></linearGradient><linearGradient id="v" x1="673.441" y1="403.838" x2="664.786" y2="472.621" gradientUnits="userSpaceOnUse"><stop stop-color="#EFD3BD"/><stop offset="1" stop-color="#C2A994"/></linearGradient><linearGradient id="w" x1="219.958" y1="227.383" x2="225.094" y2="253.216" gradientUnits="userSpaceOnUse"><stop stop-color="#D9834A"/><stop offset="1" stop-color="#EFA26F"/></linearGradient><linearGradient id="x" x1="219.958" y1="234.365" x2="219.958" y2="245.42" gradientUnits="userSpaceOnUse"><stop stop-color="#76492A"/><stop offset="1" stop-color="#895836"/></linearGradient><linearGradient id="y" x1="230.164" y1="223.494" x2="224.436" y2="196.504" gradientUnits="userSpaceOnUse"><stop stop-color="#895836"/><stop offset="1" stop-color="#9A6A49"/></linearGradient><linearGradient id="z" x1="268.432" y1="560.658" x2="215.991" y2="460.884" gradientUnits="userSpaceOnUse"><stop stop-color="#895836"/><stop offset="1" stop-color="#9A6A49"/></linearGradient><linearGradient id="A" x1="289.623" y1="617.216" x2="319.227" y2="622.904" gradientUnits="userSpaceOnUse"><stop offset=".208" stop-color="#E66667"/><stop offset="1" stop-color="#D85758"/></linearGradient><linearGradient id="B" x1="228.896" y1="411.5" x2="277.114" y2="389.952" gradientUnits="userSpaceOnUse"><stop stop-color="#585E91"/><stop offset="1" stop-color="#464B78"/></linearGradient><linearGradient id="C" x1="213.189" y1="597.902" x2="184.094" y2="551.406" gradientUnits="userSpaceOnUse"><stop stop-color="#895836"/><stop offset="1" stop-color="#9A6A49"/></linearGradient><linearGradient id="D" x1="198.521" y1="617.152" x2="213.695" y2="618.549" gradientUnits="userSpaceOnUse"><stop offset=".208" stop-color="#E66667"/><stop offset="1" stop-color="#D85758"/></linearGradient><linearGradient id="E" x1="173.901" y1="426.204" x2="235.879" y2="395.225" gradientUnits="userSpaceOnUse"><stop stop-color="#585E91"/><stop offset="1" stop-color="#464B78"/></linearGradient><linearGradient id="F" x1="195.206" y1="262.072" x2="262.685" y2="394.052" gradientUnits="userSpaceOnUse"><stop offset=".016" stop-color="#E66667"/><stop offset=".281" stop-color="#D25354"/><stop offset="1" stop-color="#E66667"/></linearGradient><linearGradient id="G" x1="339.933" y1="286.359" x2="339.926" y2="273.915" gradientUnits="userSpaceOnUse"><stop stop-color="#895836"/><stop offset="1" stop-color="#9A6A49"/></linearGradient><linearGradient id="H" x1="247.255" y1="235.056" x2="297.84" y2="339.329" gradientUnits="userSpaceOnUse"><stop offset=".009" stop-color="#E66667"/><stop offset=".412" stop-color="#D25354"/><stop offset="1" stop-color="#E66667"/></linearGradient><linearGradient id="I" x1="318.177" y1="316.28" x2="308.622" y2="302.614" gradientUnits="userSpaceOnUse"><stop stop-color="#D25354"/><stop offset="1" stop-color="#E66667"/></linearGradient><linearGradient id="J" x1="313.762" y1="275.291" x2="253.312" y2="322.498" gradientUnits="userSpaceOnUse"><stop stop-color="#134E78"/><stop offset="1" stop-color="#0E3E60"/></linearGradient><linearGradient id="K" x1="279.028" y1="325.907" x2="282.613" y2="319.62" gradientUnits="userSpaceOnUse"><stop stop-color="#895836"/><stop offset="1" stop-color="#9A6A49"/></linearGradient><linearGradient id="L" x1="196.228" y1="339.041" x2="196.695" y2="315.664" gradientUnits="userSpaceOnUse"><stop stop-color="#D25354"/><stop offset="1" stop-color="#E66667"/></linearGradient><linearGradient id="M" x1="220.453" y1="182.047" x2="223.999" y2="198.884" gradientUnits="userSpaceOnUse"><stop stop-color="#474847"/><stop offset=".766" stop-color="#2F302F"/></linearGradient></defs></svg>